<svg width="825" height="615" viewBox="0 0 825 615" fill="none" xmlns="http://www.w3.org/2000/svg">
<g clip-path="url(#clip0_1_10857)">
<path opacity="0.1" d="M811.478 273.856C811.33 274.729 811.182 275.601 811.018 276.474C805.737 306.187 797.114 334.834 784.293 361.135C783.872 362.007 783.444 362.88 783.007 363.752C774.779 380.336 764.675 395.921 752.893 410.2C746.506 417.905 739.542 425.22 731.262 430.502C719.656 437.904 706.087 440.911 692.751 443.373C678.894 445.936 664.857 448.047 650.852 450.384C645.888 451.194 640.954 452.043 636.052 452.932C622.522 455.378 609.093 458.206 595.984 461.953C579.774 466.628 564.047 472.65 549.247 481.18C548.063 481.856 546.892 482.549 545.734 483.261C544.573 483.962 543.397 484.678 542.268 485.411C541.138 486.143 540.001 486.868 538.879 487.608L537.15 488.776C536.581 489.15 536.021 489.555 535.46 489.929C533.793 491.067 532.149 492.267 530.506 493.42L530.443 493.466C529.361 494.245 528.286 495.024 527.211 495.803C521.143 500.299 515.207 505.004 509.295 509.725L505.564 512.709C503.637 514.236 501.711 515.76 499.784 517.282C498.655 518.178 497.51 519.066 496.373 519.954C495.547 520.601 494.729 521.248 493.888 521.886C489.674 525.135 485.405 528.314 481.051 531.352C480.015 532.077 478.963 532.801 477.935 533.51C469.219 539.473 459.948 544.581 450.251 548.764L450.127 548.819C445.351 550.855 440.436 552.55 435.42 553.89C432.546 554.669 429.672 555.285 426.759 555.768C418.998 557.11 411.076 557.247 403.273 556.173C387.936 553.999 373.565 546.824 358.266 544.425C326.704 539.524 296.052 555.332 266.351 567.742C259.081 570.786 251.731 573.642 244.299 576.312C239.377 578.088 234.43 579.779 229.461 581.383C199.184 591.178 167.987 597.853 136.354 601.304C123.439 602.714 109.971 603.384 96.8225 602.371C91.8572 602.006 86.9162 601.364 82.0226 600.447C65.3766 597.331 49.8368 590.717 37.3192 578.633C26.9203 568.747 19.5827 555.822 13.9899 542.337C11.7414 536.92 9.76025 531.378 8.04657 525.712C5.353 516.831 3.32986 507.761 1.99421 498.577C1.69042 496.505 1.41779 494.425 1.21526 492.344C0.810215 488.776 0.509021 485.193 0.311689 481.593C-0.778922 462.464 1.08916 443.281 5.84996 424.722C11.1545 404.162 20.0033 384.475 23.898 363.721C24.0616 362.849 24.2096 361.976 24.3576 361.103C24.8769 357.987 25.2716 354.814 25.5416 351.583C27.5045 326.201 19.9099 301.357 13.912 276.474C13.7017 275.601 13.4914 274.729 13.2889 273.856C12.6397 271.098 12.0244 268.338 11.4428 265.575C5.88891 239.258 4.36997 211.095 9.30067 184.833C9.45646 183.96 9.63562 183.08 9.81477 182.215C13.1409 165.948 19.0141 150.476 28.0108 136.694C37.2413 122.547 49.3616 110.775 62.2842 100.429C68.5937 95.3911 75.1186 90.6778 81.859 86.2891C86.704 83.1417 91.6373 80.163 96.6589 77.3532C137.234 54.7604 183.526 43.7211 229.297 46.1907C231.722 46.3154 234.142 46.4816 236.557 46.6893C239.091 46.9074 241.617 47.1671 244.136 47.4684C273.603 50.8729 302.276 59.3101 330.777 68.542C340.327 71.6583 349.854 74.7745 359.38 77.8908C363.618 79.2723 367.852 80.6357 372.085 81.9809C392.843 88.5328 413.945 94.4459 435.241 98.9021C440.18 99.9409 445.113 100.889 450.041 101.746C467.174 104.815 484.512 106.602 501.911 107.09C508.662 107.256 515.412 107.186 522.163 106.88C525.575 106.724 528.989 106.495 532.406 106.194C567.7 103.171 601.732 93.0358 635.904 83.5156C640.843 82.1367 645.789 80.7655 650.704 79.4411C657.201 77.696 663.705 76.0054 670.232 74.4473C710.877 64.6857 747.098 70.2949 784.884 90.4259C793.453 94.999 802.021 100.515 807.318 109.053C812.615 117.592 813.9 128.164 814.882 138.338C816.268 152.813 817.218 167.491 817.522 182.231C817.522 183.103 817.522 183.976 817.577 184.848C818.262 214.694 816.447 244.766 811.478 273.856Z" fill="white"/>
<path opacity="0.1" d="M541.894 361.135H539.238V362.295V363.752H542.244L541.894 361.135ZM511.788 361.135C511.784 361.155 511.784 361.176 511.788 361.197L511.554 363.363V363.557V363.752H534.611V363.596L536.254 361.135H511.788ZM450.135 361.135V276.474H476.619C476.338 276.24 476.05 276.006 475.754 275.788L475.365 275.492C475.201 275.36 475.037 275.235 474.866 275.118C474.695 275.001 474.29 274.705 473.986 274.503C473.682 274.3 473.495 274.168 473.207 274.004L473.028 273.887H472.989H450.135V269.252L449.519 269.548L448.865 269.914H448.818L448.678 270L448.273 270.265C448.133 270.35 447.993 270.436 447.86 270.53C447.455 270.802 447.081 271.098 446.653 271.402L446.263 271.714C445.999 271.916 445.749 272.127 445.484 272.337C444.448 273.186 443.428 274.074 442.369 274.892C442.104 275.103 441.839 275.305 441.59 275.5C441.023 275.915 440.436 276.3 439.829 276.653C439.577 276.809 439.317 276.953 439.05 277.081L438.614 277.284L438.217 277.455C437.281 277.85 436.311 278.158 435.319 278.375V361.135H395.593C395.593 361.228 395.648 361.314 395.671 361.407C395.889 362.186 396.107 362.965 396.318 363.744H435.327V454.497H435.935L436.628 454.544L437.89 454.638L439.931 454.84L440.85 454.949L441.862 455.074H442.01C442.595 455.152 443.186 455.245 443.786 455.339L444.168 455.401L445.025 455.541L446.256 455.76L449.208 455.604L449.613 455.689C449.776 455.689 449.94 455.752 450.111 455.791V363.752H511.5V363.557V363.363L511.733 361.197C511.73 361.176 511.73 361.155 511.733 361.135H450.135ZM541.894 361.135H539.238V362.295V363.752H542.244L541.894 361.135ZM510.129 361.135L509.864 363.752H535.514L537.259 361.135H510.129ZM450.15 361.135V276.474H476.634C476.354 276.24 476.066 276.006 475.77 275.788L475.38 275.492C475.217 275.36 475.053 275.235 474.882 275.118C474.71 275.001 474.305 274.705 474.001 274.503C473.698 274.3 473.511 274.168 473.223 274.004L473.043 273.887H472.989H450.135V269.252L449.519 269.548L448.865 269.914H448.818L448.678 270L448.273 270.265C448.133 270.35 447.993 270.436 447.86 270.53C447.455 270.802 447.081 271.098 446.653 271.402L446.263 271.714C445.999 271.916 445.749 272.127 445.484 272.337C444.448 273.186 443.428 274.074 442.369 274.892C442.104 275.103 441.839 275.305 441.59 275.5C441.023 275.915 440.436 276.3 439.829 276.653C439.577 276.809 439.317 276.953 439.05 277.081L438.614 277.284L438.217 277.455C437.281 277.85 436.311 278.158 435.319 278.375V361.135H395.593C395.593 361.228 395.648 361.314 395.671 361.407C395.889 362.186 396.115 362.965 396.325 363.744H435.327V454.49L435.935 454.529L436.628 454.575L437.89 454.669L439.931 454.871L440.85 454.98L441.862 455.105H442.01C442.595 455.183 443.186 455.277 443.786 455.37L444.168 455.432L445.025 455.573L446.256 455.791L449.208 455.635L449.613 455.721C449.776 455.721 449.94 455.783 450.111 455.822V363.752H509.864L510.144 361.135H450.15ZM650.852 184.833H817.725C817.725 183.96 817.725 183.087 817.67 182.215H650.852V79.4254C645.898 80.7498 640.952 82.121 636.052 83.4999V182.215H454.559L454.099 181.716L454.793 180.937L522.296 106.841C515.545 107.152 508.794 107.222 502.043 107.051L450.135 164V101.73C445.181 100.873 440.247 99.9251 435.335 98.8864V161.134L359.443 77.8751C349.916 74.7588 340.39 71.588 330.84 68.5263L433.995 181.716L433.535 182.215H244.198V47.4371C241.674 47.1514 239.148 46.8917 236.619 46.658C234.204 46.4451 231.784 46.2789 229.359 46.1594V182.215H96.7213V77.3531C91.6893 80.1577 86.756 83.1363 81.9214 86.289V182.215H9.78364C9.60448 183.08 9.42532 183.96 9.26953 184.833H81.8591V273.856H13.2889C13.4914 274.729 13.7017 275.601 13.912 276.474H81.8902V361.135H24.3343C24.1863 362.007 24.0383 362.88 23.8747 363.752H81.8902V600.47C86.7838 601.387 91.7248 602.03 96.6901 602.395V363.752H229.359V581.407C234.334 579.792 239.28 578.101 244.198 576.335V363.752H435.304V553.921C440.32 552.581 445.234 550.886 450.01 548.85L450.135 548.795V363.752H636.006V452.932C640.934 452.043 645.867 451.194 650.805 450.384V363.752H782.969C783.405 362.88 783.833 362.007 784.254 361.135H650.852V276.474H811.026C811.19 275.601 811.338 274.729 811.486 273.856H650.852V184.833ZM96.729 184.833H229.359V273.856H96.7213L96.729 184.833ZM96.729 361.135V276.474H229.359V361.135H96.729ZM244.206 184.833H435.304V273.856H244.198L244.206 184.833ZM244.206 361.135V276.474H435.304V361.135H244.206ZM636.013 361.135H450.135V276.474H636.006L636.013 361.135ZM636.013 273.879H450.135V187.217L452.744 184.833H636.006L636.013 273.879ZM511.796 361.135C511.792 361.155 511.792 361.176 511.796 361.197L511.562 363.363V363.557V363.752H534.619V363.596L536.262 361.135H511.796ZM541.902 361.135H539.246V362.295V363.752H542.252L541.902 361.135ZM450.142 361.135V276.474H476.626C476.346 276.24 476.058 276.006 475.762 275.788L475.372 275.492C475.209 275.36 475.045 275.235 474.874 275.118C474.702 275.001 474.297 274.705 473.994 274.503C473.69 274.3 473.503 274.168 473.215 274.004L473.036 273.887H472.997H450.135V269.252L449.519 269.548L448.865 269.914H448.818L448.678 270L448.273 270.265C448.133 270.35 447.993 270.436 447.86 270.53C447.455 270.802 447.081 271.098 446.653 271.402L446.263 271.714C445.999 271.916 445.749 272.127 445.484 272.337C444.448 273.186 443.428 274.074 442.369 274.892C442.104 275.103 441.839 275.305 441.59 275.5C441.023 275.915 440.436 276.3 439.829 276.653C439.577 276.809 439.317 276.953 439.05 277.081L438.614 277.284L438.217 277.455C437.281 277.85 436.311 278.158 435.319 278.375V361.135H395.593C395.593 361.228 395.648 361.314 395.671 361.407C395.889 362.186 396.107 362.965 396.318 363.744H435.327V454.497H435.935L436.628 454.544L437.89 454.638L439.931 454.84L440.85 454.949L441.862 455.074H442.01C442.595 455.152 443.186 455.245 443.786 455.339L444.168 455.401L445.025 455.541L446.256 455.76L449.208 455.604L449.613 455.689C449.776 455.689 449.94 455.752 450.111 455.791V363.752H511.5V363.557V363.363L511.733 361.197C511.73 361.176 511.73 361.155 511.733 361.135H450.142Z" fill="white"/>
<path opacity="0.1" d="M160.493 123.536H161.677C161.272 123.301 160.931 122.97 160.685 122.572C160.439 122.174 160.296 121.721 160.267 121.253C160.267 119.446 162.48 117.973 165.182 117.973H199.573C202.276 117.973 204.488 119.446 204.488 121.253C204.488 123.053 202.276 124.533 199.573 124.533H198.428C198.831 124.769 199.17 125.101 199.414 125.499C199.659 125.897 199.802 126.349 199.83 126.816C199.83 128.374 198.225 129.652 196.075 130.002H205.976C208.671 130.002 210.883 131.475 210.883 133.282C210.883 135.089 208.671 136.554 205.976 136.554H171.546C168.851 136.554 166.639 135.082 166.639 133.282C166.639 131.724 168.244 130.446 170.394 130.096H160.493C157.798 130.096 155.586 128.623 155.586 126.816C155.586 125.008 157.783 123.536 160.493 123.536Z" fill="white"/>
<path opacity="0.1" d="M533.232 154.753H534.385C533.979 154.517 533.638 154.185 533.392 153.785C533.146 153.385 533.003 152.931 532.975 152.463C532.975 150.663 535.187 149.19 537.89 149.19H572.28C574.983 149.19 577.196 150.663 577.196 152.463C577.196 154.27 574.983 155.742 572.28 155.742H571.135C571.539 155.98 571.878 156.313 572.123 156.712C572.367 157.112 572.51 157.565 572.537 158.033C572.537 159.591 570.933 160.861 568.783 161.211H578.683C581.378 161.211 583.591 162.692 583.591 164.491C583.591 166.291 581.378 167.771 578.683 167.771H544.301C541.606 167.771 539.393 166.299 539.393 164.491C539.393 162.933 540.998 161.655 543.148 161.313H533.232C530.537 161.313 528.325 159.832 528.325 158.033C528.325 156.233 530.552 154.753 533.232 154.753Z" fill="white"/>
<path opacity="0.1" d="M107.735 288.339H108.888C108.484 288.102 108.145 287.769 107.901 287.369C107.656 286.97 107.514 286.516 107.486 286.048C107.486 284.249 109.691 282.769 112.394 282.769H146.784C149.487 282.769 151.699 284.249 151.699 286.048C151.699 287.856 149.487 289.328 146.784 289.328H145.639C146.043 289.565 146.382 289.899 146.626 290.298C146.871 290.698 147.013 291.151 147.041 291.619C147.041 293.177 145.436 294.447 143.286 294.797H153.187C155.89 294.797 158.094 296.27 158.094 298.077C158.094 299.885 155.89 301.357 153.187 301.357H118.789C116.093 301.357 113.881 299.877 113.881 298.077C113.881 296.519 115.494 295.241 117.636 294.891H107.735C105.04 294.891 102.828 293.418 102.828 291.619C102.828 289.819 105.04 288.339 107.735 288.339Z" fill="white"/>
<path d="M505.47 512.74C503.544 514.267 501.617 515.792 499.691 517.313C498.561 518.209 497.416 519.097 496.279 519.986C495.453 520.632 494.635 521.279 493.794 521.918C489.58 525.166 485.311 528.345 480.957 531.383C479.921 532.108 478.87 532.832 477.841 533.541C469.125 539.504 459.854 544.612 450.158 548.795L450.033 548.85V512.74H505.47Z" fill="#65617D"/>
<path d="M592.151 370.826L593.023 343.91C592.501 343.504 591.972 343.13 591.465 342.757C591.681 334.731 591.222 326.702 590.095 318.754C586.574 291.837 563.712 291.253 557.262 296.807C556.407 297.545 555.475 298.188 554.481 298.724C555.066 294.883 555.79 291.035 556.312 287.233C559.132 266.728 554.754 243.66 538.848 230.408C532.188 224.869 524.048 221.464 516.734 216.829C503.632 208.563 493.28 196.355 480.03 188.307C466.78 180.26 448.171 177.245 436.612 187.591C432.133 191.595 429.243 197.15 424.647 201.014C416.079 208.212 402.72 208.688 395.242 216.728C394.868 217.133 394.51 217.546 394.167 217.982C387.936 225.975 389.642 237.31 391.628 247.228C394.019 259.163 393.03 268.73 403.266 272.158C403.304 272.633 403.336 273.108 403.39 273.576C404.223 280.897 406.645 287.949 410.488 294.236C414.331 300.523 419.501 305.894 425.637 309.974L423.978 310.566C419.553 312.124 415.573 313.635 413.026 314.671C403.678 318.481 384.002 323.444 384.002 323.444C384.002 323.444 383.535 329.053 383.621 337.326C377.062 344.455 366.118 356.982 362.901 364.407C358.227 375.236 331.821 406.25 324.787 410.932C317.753 415.614 310.127 421.169 310.127 421.169C310.127 421.169 298.989 427.316 293.715 427.9C290.062 428.305 278.76 426.14 278.76 426.14C278.76 426.14 233.62 370.826 236.549 413.269C239.478 455.713 275.535 457.154 275.535 457.154L311.888 456.57C311.888 456.57 331.533 459.203 340.327 451.895C347.836 445.663 386.752 411.47 399.254 395.959C399.542 396.278 399.83 396.59 400.134 396.894C400.134 396.894 405.112 390.458 405.704 396.894C406.296 403.329 402.471 406.242 404.527 408.579C406.584 410.917 412.737 419.112 413.026 422.33C413.314 425.547 404.823 438.69 419.179 448.662C419.405 448.818 419.647 448.966 419.911 449.114C422.474 454.949 430.622 460.66 430.622 460.66L474.593 460.076L557.558 466.511C557.558 466.511 560.027 464.337 563.369 460.784C567.832 464.882 574.025 468.396 581.004 466.238C581.004 466.238 590.975 454.248 591.271 446.348C591.271 446.348 584.821 429.669 581.923 424.698C579.026 419.728 583.98 408.899 583.98 408.899C583.98 408.899 587.493 398.366 589.549 398.366C591.606 398.366 590.133 391.354 590.133 391.354C589.356 390.208 588.87 388.89 588.716 387.513C588.563 386.137 588.747 384.744 589.253 383.455C590.975 379.022 592.151 370.826 592.151 370.826Z" fill="url(#paint0_linear_1_10857)"/>
<path d="M542.416 364.765L539.3 368.411L526.712 383.073L510.269 384.07L483.948 385.691C483.948 385.691 448.46 342.92 455.128 333.61C457.55 330.253 457.947 325.82 457.464 321.636C457.402 321.06 457.316 320.483 457.215 319.914C456.417 315.488 455.023 311.19 453.071 307.138L453.944 306.74L454.505 306.483L485.538 292.32L493.218 288.814C493.6 290.931 494.31 292.976 495.321 294.875C495.469 295.171 495.633 295.467 495.804 295.748C506.39 313.277 540.336 302.191 540.336 302.191L542.416 364.765Z" fill="#EE8E9E"/>
<path d="M588.303 342.881C588.069 353.492 586.34 358.073 586.34 358.073L542.416 364.765L540.772 353.36L534.268 308.322L540.375 302.214C542.815 302.74 545.343 302.699 547.764 302.094C550.186 301.489 552.436 300.336 554.341 298.724C560.736 293.193 583.427 293.777 586.917 320.538C587.942 327.94 588.405 335.409 588.303 342.881Z" fill="#EE8E9E"/>
<path d="M577.904 467.165C577.904 467.165 587.789 455.238 588.085 447.385L578.192 430.798L569.468 421.45L553.173 452.908C553.173 452.908 563.938 471.528 577.904 467.165Z" fill="#DFE5EE"/>
<path opacity="0.1" d="M577.904 467.165C577.904 467.165 587.789 455.238 588.085 447.385L578.192 430.798L569.468 421.45L553.173 452.908C553.173 452.908 563.938 471.528 577.904 467.165Z" fill="black"/>
<path d="M496.279 519.986C495.454 520.632 494.636 521.279 493.794 521.918C489.58 525.166 485.312 528.345 480.958 531.383C479.922 532.108 478.87 532.832 477.842 533.541H435.304H244.198H229.359L155.843 530.908L96.7213 530.41L81.9214 529.63L8.0778 525.735C5.37256 516.848 3.33899 507.769 1.99427 498.577C1.69049 496.505 1.41786 494.425 1.21533 492.344L81.8903 496.816L96.6902 497.65L229.328 505.051L244.167 505.877L435.273 516.55L449.979 517.376H450.104L496.279 519.986Z" fill="#D48A9B"/>
<path d="M595.937 461.953C579.727 466.628 564 472.65 549.2 481.181C548.024 481.858 546.863 482.552 545.687 483.261C544.511 483.97 543.35 484.679 542.221 485.411C541.091 486.143 539.954 486.868 538.832 487.608L537.103 488.776L535.413 489.929C533.746 491.075 532.102 492.267 530.459 493.42L530.397 493.466C529.314 494.245 528.239 495.025 527.164 495.804C521.096 500.299 515.16 505.004 509.248 509.725C508.002 510.723 506.753 511.717 505.502 512.709L499.737 517.282C498.608 518.178 497.463 519.066 496.326 519.955C495.5 520.601 494.682 521.248 493.841 521.887L450.22 519.807H450.096L435.389 519.121L244.198 510.06L229.359 509.352L96.7211 503.049L81.9212 502.34L1.99404 498.577C1.69025 496.505 1.41762 494.425 1.2151 492.345C0.810049 488.776 0.508855 485.193 0.311523 481.593L81.9134 452.768L96.7133 447.525L110.158 442.773L134.656 444.05L191.277 446.956L229.383 448.958L244.221 449.738L253.701 450.236L255.968 450.361L335.747 454.529L336.588 454.583L372.186 456.437H372.591H372.825L376.384 456.617L388.52 457.255L403.694 458.035L408.695 458.299L409.637 458.354L416.71 458.72L418.728 458.821L425.481 459.18L428.168 459.328H428.254H428.815L435.132 459.663L444.916 460.177H444.962L448 460.333H448.327L450.142 460.434L454.598 460.668L458.492 460.87H458.531L462.901 461.096H462.971L466.282 461.275L468.821 461.408L477.834 461.883L479.454 461.969H480.015L480.794 462.016L483.434 462.156L484.618 462.218L493.81 462.693H494.651L508.22 462.576H508.314L559.903 462.156H560.892H561.936H565.005L581.612 462.023H584.089L595.937 461.953Z" fill="#EFC6CD"/>
<path d="M247.758 463.02L252.556 488.55L383.013 486.587C383.013 486.587 392.828 489.423 392.61 481.57C392.61 481.57 412.465 462.802 513.034 484.624L474.422 454.295L368.876 459.967L246.488 456.694L247.758 463.02Z" fill="white"/>
<path d="M250.157 456.913L254.737 484.624C254.737 484.624 366.904 481.352 384.54 484.406L371.212 459.094C371.212 459.094 303.39 452.768 250.157 456.913Z" fill="white"/>
<path opacity="0.1" d="M250.157 456.913L254.737 484.624C254.737 484.624 366.904 481.352 384.54 484.406L371.212 459.094C371.212 459.094 303.39 452.768 250.157 456.913Z" fill="black"/>
<path d="M251.832 456.811L256.349 482.583C256.349 482.583 367.091 479.544 384.54 482.38L371.399 458.845C371.399 458.845 304.395 452.955 251.832 456.811Z" fill="white"/>
<path opacity="0.1" d="M253.865 457.606L258.266 481.71C258.266 481.71 366.578 478.867 383.675 481.523L370.823 459.499C370.823 459.499 305.283 453.968 253.865 457.606Z" fill="black"/>
<path d="M254.737 456.725L259.162 480.876C259.162 480.876 367.473 478.033 384.571 480.689L371.688 458.642C371.688 458.642 306.155 453.118 254.737 456.725Z" fill="white"/>
<path d="M178.105 391.183C178.105 391.183 183.776 398.592 175.496 409.787C167.215 420.982 160.376 430.425 163.142 437.405C163.142 437.405 175.605 416.62 185.809 416.37C196.013 416.121 189.298 403.679 178.105 391.183Z" fill="white"/>
<path opacity="0.1" d="M178.105 391.183C178.603 391.902 178.994 392.689 179.265 393.52C189.189 405.206 194.478 416.113 184.936 416.347C176.048 416.596 165.392 432.489 162.837 436.509C162.926 436.81 163.027 437.114 163.141 437.421C163.141 437.421 175.604 416.635 185.808 416.386C196.013 416.137 189.298 403.679 178.105 391.183Z" fill="black"/>
<path d="M188.644 400.633C188.644 403.235 188.348 405.354 187.99 405.354C187.631 405.354 187.335 403.235 187.335 400.633C187.335 398.031 187.702 399.246 188.06 399.246C188.418 399.246 188.644 398.023 188.644 400.633Z" fill="#FFD037"/>
<path d="M192.258 403.742C189.968 404.996 187.974 405.752 187.803 405.432C187.631 405.113 189.361 403.874 191.635 402.596C193.91 401.319 193.022 402.254 193.193 402.596C193.364 402.939 194.548 402.495 192.258 403.742Z" fill="#FFD037"/>
<path d="M148.17 391.183C148.17 391.183 142.499 398.592 150.787 409.787C159.075 420.982 165.899 430.425 163.141 437.405C163.141 437.405 150.639 416.62 140.466 416.37C130.293 416.121 136.977 403.679 148.17 391.183Z" fill="white"/>
<path opacity="0.1" d="M148.17 391.183C147.676 391.904 147.285 392.691 147.009 393.52C137.086 405.206 131.797 416.113 141.339 416.347C150.226 416.596 160.89 432.489 163.445 436.509C163.362 436.81 163.261 437.114 163.141 437.421C163.141 437.421 150.639 416.635 140.466 416.386C130.293 416.137 136.977 403.679 148.17 391.183Z" fill="black"/>
<path d="M137.631 400.633C137.631 403.235 137.927 405.354 138.285 405.354C138.643 405.354 138.939 403.235 138.939 400.633C138.939 398.031 138.573 399.246 138.215 399.246C137.857 399.246 137.631 398.023 137.631 400.633Z" fill="#FFD037"/>
<path d="M134.017 403.742C136.307 404.996 138.309 405.752 138.48 405.432C138.652 405.113 136.922 403.874 134.648 402.596C132.373 401.319 133.261 402.254 133.09 402.596C132.919 402.939 131.727 402.495 134.017 403.742Z" fill="#FFD037"/>
<path d="M193.614 427.409L193.333 429.747L192.936 433.011L192.772 434.374L192.375 437.646L192.204 439.01L191.799 442.282L187.265 479.459C186.86 482.777 181.439 485.364 174.896 485.364H151.356C144.813 485.364 139.399 482.777 138.994 479.459L134.453 442.282L134.056 439.01L133.892 437.646L133.487 434.374L133.324 433.011L132.926 429.747L132.638 427.409C132.412 425.532 135.341 423.95 139.049 423.95H187.234C190.934 423.95 193.871 425.532 193.614 427.409Z" fill="#65617D"/>
<path d="M193.357 429.723L192.959 432.995H133.324L132.926 429.723H193.357Z" fill="#9D9CB5"/>
<path d="M192.796 434.359L192.399 437.631H133.892L133.487 434.359H192.796Z" fill="#9D9CB5"/>
<path d="M192.227 438.994L191.83 442.258H134.453L134.056 438.994H192.227Z" fill="#9D9CB5"/>
<path d="M265.502 424.402C265.502 424.402 250.375 409.857 250.959 428.765C251.544 447.673 265.502 424.402 265.502 424.402Z" fill="#EE8E9E"/>
<path d="M401.342 391.238C401.007 392.702 399.379 395.133 396.84 398.179C383.722 413.979 346.403 446.816 339.089 452.908C330.365 460.185 310.876 457.583 310.876 457.583L274.811 458.167C274.811 458.167 239.034 456.71 236.121 414.539C233.207 372.369 278.004 427.339 278.004 427.339C278.004 427.339 289.221 429.49 292.843 429.085C298.078 428.508 309.131 422.4 309.131 422.4C309.131 422.4 316.694 416.869 323.674 412.218C330.653 407.567 356.833 376.724 361.491 365.957C364.443 359.125 373.954 347.953 380.521 340.708C384.291 336.54 387.087 333.696 387.087 333.696C387.087 333.696 403.375 382.216 401.342 391.238Z" fill="#EE8E9E"/>
<path opacity="0.1" d="M401.342 391.238C401.007 392.702 399.379 395.133 396.839 398.179C383.597 384.693 380.832 357.785 380.521 340.676C384.291 336.508 387.087 333.665 387.087 333.665C387.087 333.665 403.375 382.216 401.342 391.238Z" fill="black"/>
<path opacity="0.1" d="M539.292 368.411L526.712 383.073L510.269 384.07L483.948 385.691C483.948 385.691 448.46 342.92 455.128 333.61C457.55 330.253 457.947 325.82 457.464 321.636C457.402 321.06 457.316 320.483 457.215 319.914C456.417 315.488 455.023 311.19 453.071 307.138L453.944 306.74L454.505 306.483C455.89 310.343 456.846 314.342 457.355 318.411C457.441 318.964 457.519 319.54 457.597 320.133C457.87 322.236 458.119 324.573 458.376 327.144C460.401 350.687 475.209 359.545 481.892 362.366C484.041 363.272 486.142 364.289 488.186 365.412C494.616 368.958 502.031 370.299 509.295 369.229C525.793 367.063 539.246 355.074 539.246 355.074L539.316 366.876L539.292 368.411Z" fill="black"/>
<path d="M539.798 459.896C539.798 459.896 431.596 459.6 417.333 449.714C403.071 439.828 411.522 426.732 411.226 423.53C410.93 420.328 404.831 412.187 402.798 409.849C400.765 407.512 404.543 404.614 403.959 398.218C403.375 391.822 398.436 398.218 398.436 398.218C378.067 377.557 382.429 325.197 382.429 325.197C382.429 325.197 401.902 320.257 411.25 316.463C413.781 315.435 417.723 313.97 422.155 312.389L423.798 311.797C435.225 307.707 448.81 303.087 448.81 303.087C448.81 303.087 451.42 301.24 454.045 306.764C455.244 309.304 456.452 313.394 457.417 319.93C457.503 320.483 457.581 321.06 457.659 321.652C457.932 323.755 458.181 326.092 458.438 328.663C460.463 352.207 475.271 361.065 481.954 363.885C484.103 364.791 486.204 365.808 488.248 366.931C494.678 370.477 502.093 371.818 509.357 370.748C525.855 368.583 539.308 356.593 539.308 356.593L539.378 368.396L539.58 403.858L539.798 459.896Z" fill="#DFE5EE"/>
<path d="M535.14 413.932L533.396 424.987C533.396 424.987 490.343 435.746 473.479 438.948C456.615 442.149 420.247 438.075 417.629 445.055C415.012 452.036 428.683 461.642 428.683 461.642L472.303 461.057L554.622 467.461C554.622 467.461 586.036 439.82 575.856 420.616C565.675 401.412 535.14 413.932 535.14 413.932Z" fill="#EE8E9E"/>
<path opacity="0.1" d="M446.427 326.653C446.427 326.653 426.642 342.944 430.427 350.804C434.213 358.665 446.427 326.653 446.427 326.653Z" fill="black"/>
<path opacity="0.1" d="M421.992 356.032C421.992 356.032 401.918 390.653 403.087 393.271C404.255 395.889 409.778 405.198 409.482 398.218C409.186 391.238 421.992 356.032 421.992 356.032Z" fill="black"/>
<path opacity="0.1" d="M430.139 362.147C430.139 362.147 425.466 383.673 420.831 392.694C416.196 401.716 430.139 362.147 430.139 362.147Z" fill="black"/>
<path opacity="0.1" d="M495.843 295.771C491.996 302.825 486.517 308.856 479.863 313.358C473.21 317.861 465.575 320.705 457.597 321.652H457.503C444.954 323.126 432.31 319.815 422.093 312.381C433.777 308.158 448.748 303.079 448.748 303.079C448.748 303.079 451.358 301.233 453.983 306.756L493.257 288.838C493.698 291.285 494.574 293.633 495.843 295.771Z" fill="black"/>
<path d="M501.981 269.922C501.996 278.683 499.713 287.295 495.36 294.899C493.281 298.524 490.761 301.879 487.859 304.886C479.761 313.318 468.971 318.654 457.356 319.969H457.254C455.398 320.182 453.53 320.288 451.661 320.288C439.298 320.289 427.366 315.736 418.144 307.5C408.922 299.263 403.055 287.919 401.661 275.632C401.445 273.747 401.338 271.851 401.342 269.953C401.342 256.605 406.643 243.804 416.08 234.366C425.517 224.928 438.316 219.625 451.661 219.625C465.007 219.625 477.806 224.928 487.243 234.366C496.68 243.804 501.981 256.605 501.981 269.953V269.922Z" fill="#EE8E9E"/>
<path opacity="0.1" d="M534.564 365.155L539.238 358.143C539.238 358.143 564.834 327.596 589.869 347.088L588.996 373.857C588.996 373.857 587.828 381.998 586.083 386.322C585.582 387.605 585.4 388.99 585.552 390.359C585.703 391.729 586.185 393.04 586.956 394.182C586.956 394.182 588.412 401.194 586.379 401.194C584.346 401.194 580.849 411.665 580.849 411.665C580.849 411.665 575.902 422.431 578.816 427.378C581.729 432.325 588.124 448.904 588.124 448.904C588.124 448.904 577.943 442.796 575.03 432.614C575.03 432.614 550.306 413.41 531.105 425.602L534.564 365.155Z" fill="black"/>
<path opacity="0.1" d="M588.303 342.881C588.069 353.492 586.34 358.073 586.34 358.073L542.416 364.765L540.772 353.36C546.521 347.361 567.427 328.289 588.303 342.881Z" fill="black"/>
<path d="M534.564 363.596L539.238 356.585C539.238 356.585 564.834 326.038 589.869 345.53L588.996 372.299C588.996 372.299 587.828 380.44 586.083 384.764C585.582 386.047 585.4 387.432 585.552 388.801C585.703 390.171 586.185 391.482 586.956 392.624C586.956 392.624 588.412 399.636 586.379 399.636C584.346 399.636 580.849 410.107 580.849 410.107C580.849 410.107 575.902 420.873 578.816 425.82C581.729 430.767 588.124 447.346 588.124 447.346C588.124 447.346 577.943 441.238 575.03 431.056C575.03 431.056 550.306 411.852 531.105 424.044L534.564 363.596Z" fill="#DFE5EE"/>
<path opacity="0.1" d="M575.863 343.816C575.863 343.816 533.691 369.712 535.725 392.422C535.725 392.422 559.287 350.796 575.863 343.816Z" fill="black"/>
<path opacity="0.1" d="M539.284 368.419L539.487 403.882C531.511 404.24 523.994 403.204 518.05 398.039C513.914 394.439 511.507 389.469 510.261 384.094C509.334 379.762 508.993 375.326 509.248 370.904C509.244 370.86 509.244 370.816 509.248 370.772C509.739 360.979 511.99 351.186 510.806 341.455C509.622 331.725 503.726 321.457 494.098 319.408C492.197 318.995 490.063 318.847 488.708 317.452C487.212 315.894 487.282 313.471 487.446 311.313L487.726 307.675C487.796 306.74 487.828 305.813 487.828 304.886C487.822 296.615 484.945 288.602 479.689 282.216C474.432 275.831 467.122 271.469 459.007 269.875L458.695 269.821C455.984 269.275 453.165 268.738 450.454 269.361C445.297 270.553 441.963 275.554 437.212 277.931C428.098 282.48 412.901 277.502 403.359 275.936C402.736 275.835 402.144 275.718 401.575 275.586C401.359 273.7 401.252 271.804 401.256 269.906C401.259 262.198 403.033 254.593 406.441 247.679C409.848 240.765 414.798 234.726 420.909 230.028C427.019 225.33 434.127 222.099 441.684 220.584C449.241 219.068 457.044 219.31 464.493 221.288C471.942 223.267 478.837 226.931 484.646 231.997C490.455 237.063 495.023 243.396 497.997 250.507C500.972 257.619 502.273 265.318 501.801 273.012C501.329 280.706 499.096 288.189 495.274 294.883C495.422 295.179 495.586 295.475 495.757 295.756C506.343 313.284 540.289 302.198 540.289 302.198L542.33 364.749L539.284 368.419Z" fill="black"/>
<path d="M439.043 277.066C443.763 274.682 447.097 269.681 452.285 268.496C454.987 267.873 457.807 268.411 460.533 268.948L460.845 269.011C469.425 270.709 477.084 275.495 482.371 282.463C487.659 289.431 490.207 298.097 489.533 306.818L489.253 310.457C489.082 312.607 489.012 315.045 490.523 316.588C491.87 317.982 494.005 318.146 495.905 318.536C505.533 320.592 511.43 330.806 512.614 340.591C513.798 350.376 511.507 360.2 511.056 370.032C510.604 379.863 512.411 390.716 519.842 397.174C531.526 407.302 549.286 401.537 564.748 400.61C557.909 400.61 552.784 393.552 552.41 386.727C552.036 379.902 555.074 373.405 557.979 367.25C560.885 361.096 563.798 354.474 563.151 347.665C562.263 338.316 554.894 330.829 552.075 321.831C548.788 311.36 551.958 300.119 553.446 289.235C556.242 268.855 551.888 245.911 536.114 232.737C529.509 227.229 521.431 223.84 514.171 219.228C501.163 210.978 490.904 198.879 477.756 190.855C464.607 182.831 446.146 179.855 434.673 190.138C430.233 194.119 427.366 199.643 422.802 203.484C413.883 211.002 399.706 211.142 392.555 220.366C386.402 228.304 388.069 239.578 390.039 249.433C392.664 262.575 391.184 272.805 405.229 275.142C414.732 276.645 429.921 281.624 439.043 277.066Z" fill="#603556"/>
<path opacity="0.1" d="M554.762 394.33C543.507 395.709 532.352 396.418 524.158 389.313C516.726 382.855 514.896 372.01 515.371 362.171C515.846 352.331 518.121 342.499 516.929 332.722C515.737 322.945 509.848 312.731 500.221 310.675C498.32 310.27 496.194 310.121 494.838 308.727C493.335 307.169 493.397 304.738 493.569 302.588L493.849 298.95C494.522 290.229 491.974 281.564 486.686 274.598C481.399 267.631 473.74 262.846 465.161 261.15L464.849 261.087C462.123 260.55 459.303 260.012 456.6 260.635C451.443 261.827 448.11 266.868 443.358 269.205C434.237 273.763 419.055 268.784 409.497 267.219C395.477 264.92 396.941 254.676 394.308 241.509C392.836 234.155 391.535 226.006 393.529 219.041C393.155 219.439 392.797 219.82 392.454 220.296C386.301 228.234 387.967 239.507 389.938 249.362C392.563 262.505 391.083 272.734 405.128 275.071C414.677 276.63 429.867 281.616 438.988 277.058C443.709 274.674 447.042 269.673 452.23 268.488C454.933 267.865 457.753 268.403 460.479 268.94L460.791 269.003C469.371 270.701 477.03 275.487 482.317 282.455C487.604 289.423 490.153 298.089 489.479 306.81L489.199 310.449C489.027 312.599 488.957 315.037 490.468 316.58C491.816 317.974 493.95 318.138 495.851 318.528C505.479 320.584 511.375 330.798 512.559 340.583C513.743 350.368 511.461 360.192 511.001 370.024C510.542 379.855 512.357 390.708 519.788 397.166C531.472 407.294 549.232 401.529 564.694 400.602C560.495 400.625 556.967 397.961 554.762 394.33Z" fill="black"/>
<path d="M238.636 420.32L286.658 402.402C287.793 401.978 289.05 402.022 290.153 402.524C291.256 403.027 292.114 403.947 292.539 405.082C292.963 406.217 292.919 407.474 292.416 408.577C291.914 409.68 290.994 410.538 289.859 410.964L241.838 428.882L231.54 427.854L238.636 420.32Z" fill="#5C5C8E"/>
<path opacity="0.1" d="M291.091 403.617C291.514 404.753 291.469 406.011 290.965 407.114C290.461 408.218 289.539 409.075 288.403 409.499L240.35 427.48L232.623 426.701L231.509 427.885L241.807 428.913L289.829 410.995C290.963 410.57 291.883 409.711 292.385 408.608C292.888 407.505 292.932 406.248 292.508 405.113C292.154 404.166 291.497 403.363 290.639 402.83C290.812 403.079 290.963 403.342 291.091 403.617Z" fill="white"/>
<path d="M238.644 420.32L241.838 428.882L233.394 428.033L231.548 427.846L234.072 425.166L238.644 420.32Z" fill="#EFC8C4"/>
<path d="M234.064 425.143C234.261 425.29 234.43 425.472 234.562 425.68C234.641 425.805 234.683 425.949 234.683 426.097C234.683 426.244 234.641 426.389 234.562 426.514C234.43 426.651 234.274 426.764 234.103 426.849C233.91 426.978 233.748 427.148 233.63 427.348C233.511 427.547 233.439 427.771 233.417 428.002L231.563 427.823L234.064 425.143Z" fill="#727A9C"/>
<path d="M389.416 475.002C389.416 475.002 431.012 466.269 500.805 477.34L473.464 457.271L423.721 447.089L388.528 456.437L389.416 475.002Z" fill="white"/>
<path opacity="0.1" d="M389.416 475.002C389.416 475.002 431.012 466.269 500.805 477.34L473.464 457.271L423.721 447.089L388.528 456.437L389.416 475.002Z" fill="black"/>
<path d="M384.54 484.445C384.54 484.445 405.485 427.776 513.065 484.624L474.453 459.772C474.453 459.772 381.954 434.211 371.267 463.667L384.54 484.445Z" fill="white"/>
<path opacity="0.1" d="M384.54 484.406C384.54 484.406 405.486 423.818 513.065 485.496L474.453 458.541C474.453 458.541 381.923 427.97 371.212 459.966L384.54 484.406Z" fill="black"/>
<path d="M384.54 484.429C384.54 484.429 405.485 422.946 513.065 484.624L474.453 457.668C474.453 457.668 381.954 427.971 371.267 460.006L384.54 484.429Z" fill="white"/>
<path opacity="0.1" d="M384.54 484.445C384.54 484.445 405.486 416.113 513.065 485.496L474.422 455.167C474.422 455.167 381.923 424.005 371.236 459.967L384.54 484.445Z" fill="black"/>
<path d="M384.54 484.406C384.54 484.406 405.486 415.241 513.065 484.624L474.422 454.295C474.422 454.295 381.923 423.132 371.236 459.094L384.54 484.406Z" fill="white"/>
<path opacity="0.1" d="M707.287 477.893C707.287 477.893 681.465 505.557 704.708 518.996C704.708 518.996 707.746 522.658 712.085 520.741C712.085 520.741 710.62 519.44 713.557 516.932C714.595 516.032 715.524 515.012 716.322 513.893C717.406 512.384 717.969 510.563 717.927 508.705C717.927 508.705 721.308 497.728 710.566 483.479C710.566 483.479 709.592 478.711 708.767 478.189L706.804 484.834C706.804 484.834 711.734 486.089 713.588 489.844C713.588 489.844 707.092 484.741 706.461 485.808C706.336 486.026 705.581 489.384 705.581 489.384C705.581 489.384 714.149 491.597 716.829 497.486C716.829 497.486 709.904 490.373 705.285 490.654L704.443 495.78C704.443 495.78 713.612 497.681 716.907 504.272C716.907 504.272 709.413 497.081 704.319 496.918L704.171 502.067C704.171 502.067 713.074 504.093 715.793 509.593C715.793 509.593 706.297 502.168 704.218 503.251C704.218 503.251 704.366 507.996 704.997 509.235C704.997 509.235 711.353 510.793 712.646 514.174C712.646 514.174 705.775 509.881 705.183 510.536C705.183 510.536 707.03 516.659 709.6 519.269C709.6 519.269 705.518 515.693 704.241 510.871C704.241 510.871 702.512 513.886 702.948 516.846C702.948 516.846 700.401 514.026 703.813 509.383C703.813 509.383 702.566 504.552 702.878 503.789C702.878 503.789 698.866 507.895 697.838 511.58C697.838 511.58 697.059 506.967 702.87 502.457V497.268C702.87 497.268 697.277 502.418 696.124 505.604C696.124 505.604 696.046 500.774 702.987 495.967L703.766 490.927C703.766 490.927 698.609 494.993 696.561 498.265C696.561 498.265 697.449 493.762 704.038 489.493L704.95 486.19C704.95 486.19 701.242 489.228 700.276 490.194C699.31 491.16 698.944 490.973 698.944 490.973C700.461 488.361 702.672 486.22 705.331 484.788C705.331 484.788 707.715 478.072 707.287 477.893Z" fill="white"/>
<path opacity="0.1" d="M822.718 27.7502C822.718 27.7502 788.219 43.3315 804.483 64.67C804.483 64.67 805.877 69.2276 810.613 69.1341C810.613 69.1341 809.764 67.3656 813.441 66.1814C814.747 65.7544 815.997 65.1711 817.164 64.4441C818.746 63.4691 819.968 62.0063 820.646 60.2761C820.646 60.2761 827.999 51.4571 823.582 34.1697C823.582 34.1697 824.525 29.3941 823.964 28.5916L819.587 33.9672C819.587 33.9672 823.653 37.0211 823.917 41.2047C823.917 41.2047 819.898 33.9905 818.901 34.7384C818.699 34.8865 816.712 37.6911 816.712 37.6911C816.712 37.6911 823.723 43.0355 823.964 49.5095C823.964 49.5095 820.319 40.2698 815.941 38.7428L813.191 43.1523C813.191 43.1523 820.918 48.4422 821.433 55.7965C821.433 55.7965 817.289 46.2764 812.654 44.1573L810.527 48.8317C810.527 48.8317 817.966 54.1371 818.317 60.2605C818.317 60.2605 812.42 49.7432 810.083 49.9458C810.083 49.9458 808.393 54.3708 808.526 55.7654C808.526 55.7654 813.776 59.6607 813.682 63.2755C813.682 63.2755 809.009 56.6691 808.23 57.043C808.23 57.043 807.567 63.4002 808.938 66.8047C808.938 66.8047 806.547 61.9277 807.233 56.9885C807.233 56.9885 804.467 59.1075 803.735 62.0056C803.735 62.0056 802.473 58.4142 807.412 55.4459C807.412 55.4459 808.121 50.5145 808.705 49.9302C808.705 49.9302 803.416 52.1661 801.063 55.1421C801.063 55.1421 802.115 50.5846 809.227 48.6681L811.252 43.9002C811.252 43.9002 804.109 46.4867 801.811 48.9797C801.811 48.9797 803.603 44.4923 811.859 42.7472L814.516 38.4C814.516 38.4 808.191 40.1685 805.036 42.3888C805.036 42.3888 807.599 38.587 815.326 37.1847L817.437 34.4891C817.437 34.4891 812.841 35.8603 811.556 36.3745C810.27 36.8887 809.998 36.5848 809.998 36.5848C812.419 34.7526 815.302 33.6304 818.325 33.3439C818.325 33.3439 822.998 28.0619 822.718 27.7502Z" fill="white"/>
<path opacity="0.1" d="M495.274 37.395C495.274 37.395 443.443 52.1972 468.642 74.2291C468.642 74.2291 470.878 78.9035 478.052 78.9035C478.052 78.9035 476.712 77.0961 482.258 75.9976C484.167 75.6135 486.039 75.0608 487.851 74.346C489.987 73.5971 491.806 72.1438 493.007 70.2247C493.007 70.2247 503.913 61.4992 496.754 43.908C496.754 43.908 498.055 39.109 497.183 38.2832L490.702 43.5964C490.702 43.5964 496.933 46.7983 497.455 51.0286C497.455 51.0286 491.169 43.6353 489.666 44.3598C489.362 44.5079 486.425 47.2813 486.425 47.2813C486.425 47.2813 497.237 52.875 497.728 59.4269C497.728 59.4269 491.964 49.9925 485.265 48.3331L481.214 52.7114C481.214 52.7114 493.054 58.2661 494.028 65.714C494.028 65.714 487.5 55.9835 480.427 53.7164L477.312 58.3908C477.312 58.3908 488.715 63.9533 489.463 70.1546C489.463 70.1546 480.248 59.3646 476.712 59.497C476.712 59.497 474.274 63.9377 474.492 65.3478C474.492 65.3478 482.546 69.4612 482.507 73.0761C482.507 73.0761 475.232 66.2671 474.032 66.6255C474.032 66.6255 473.207 73.0371 475.372 76.5118C475.372 76.5118 471.618 71.518 472.521 66.5476C472.521 66.5476 468.401 68.6121 467.365 71.518C467.365 71.518 465.355 67.8642 472.755 64.9972C472.755 64.9972 473.697 60.0268 474.562 59.4503C474.562 59.4503 466.617 61.5693 463.135 64.5142C463.135 64.5142 464.599 59.9333 475.318 58.1882L478.262 53.4203C478.262 53.4203 467.513 55.851 464.101 58.3051C464.101 58.3051 466.695 53.8177 479.158 52.2595L483.053 47.9357C483.053 47.9357 473.518 49.5484 468.798 51.7142C468.798 51.7142 472.576 47.9357 484.236 46.7282L487.352 44.0638C487.352 44.0638 480.427 45.3259 478.496 45.8089C476.564 46.2919 476.159 45.9803 476.159 45.9803C480.052 44.0952 484.299 43.0544 488.622 42.9264C488.622 42.9264 495.726 37.7222 495.274 37.395Z" fill="white"/>
<path opacity="0.1" d="M648.188 615.008C648.188 615.008 674.283 587.593 651.171 573.928C651.171 573.928 648.165 570.235 643.81 572.105C643.81 572.105 645.267 573.421 642.307 575.907C641.261 576.796 640.322 577.806 639.511 578.914C638.411 580.412 637.831 582.228 637.859 584.087C637.859 584.087 634.362 595.033 644.971 609.383C644.971 609.383 645.898 614.159 646.716 614.696L648.749 608.066C648.749 608.066 643.826 606.765 642.011 602.995C642.011 602.995 648.453 608.152 649.092 607.093C649.224 606.874 650.011 603.532 650.011 603.532C650.011 603.532 641.442 601.195 638.841 595.321C638.841 595.321 645.695 602.504 650.322 602.262L651.21 597.144C651.21 597.144 642.066 595.157 638.817 588.574C638.817 588.574 646.241 595.835 651.335 596.053L651.53 590.896C651.53 590.896 642.642 588.746 639.947 583.214C639.947 583.214 649.372 590.74 651.46 589.673C651.46 589.673 651.358 584.936 650.681 583.69C650.681 583.69 644.34 582.022 643.078 578.672C643.078 578.672 649.91 583.035 650.502 582.381C650.502 582.381 648.718 576.242 646.171 573.608C646.171 573.608 650.221 577.223 651.452 582.053C651.452 582.053 653.212 579.054 652.799 576.094C652.799 576.094 655.323 578.945 651.865 583.549C651.865 583.549 653.064 588.395 652.745 589.151C652.745 589.151 656.795 585.084 657.855 581.446C657.855 581.446 658.634 586.066 652.737 590.514L652.659 595.703C652.659 595.703 658.299 590.608 659.483 587.429C659.483 587.429 659.483 592.267 652.527 597.004L651.748 602.036C651.748 602.036 656.943 598.016 659.023 594.768C659.023 594.768 658.089 599.255 651.46 603.462L650.517 606.758C650.517 606.758 654.256 603.758 655.253 602.8C656.25 601.842 656.593 602.021 656.593 602.021C655.052 604.62 652.819 606.74 650.143 608.144C650.143 608.144 647.799 614.821 648.188 615.008Z" fill="white"/>
<path opacity="0.1" d="M393.685 0.96579C393.685 0.96579 398.132 38.5478 423.401 29.4795C423.401 29.4795 428.161 29.5184 429.5 24.9687C429.5 24.9687 427.553 25.2492 427.537 21.385C427.519 20.0104 427.339 18.6428 427 17.3105C426.552 15.5081 425.526 13.902 424.079 12.7374C424.079 12.7374 417.879 3.06147 400.033 2.11101C400.033 2.11101 395.764 -0.226175 394.83 0.0698693L398.639 5.85831C398.639 5.85831 402.775 2.89787 406.841 3.91065C406.841 3.91065 398.756 5.57784 399.168 6.74644C399.246 6.98795 401.318 9.72245 401.318 9.72245C401.318 9.72245 408.601 4.58064 414.833 6.33353C414.833 6.33353 404.932 7.01911 402.159 10.7352L405.486 14.6929C405.486 14.6929 412.854 8.91223 420.028 10.634C420.028 10.634 409.7 11.7246 406.28 15.5031L410.159 18.9466C410.159 18.9466 417.45 13.4464 423.401 14.9266C423.401 14.9266 411.592 17.3884 411.078 19.6711C411.078 19.6711 414.794 22.6159 416.165 22.9276C416.165 22.9276 421.493 19.1024 424.873 20.271C424.873 20.271 417.162 22.7484 417.279 23.6209C417.279 23.6209 423.144 26.1607 426.797 25.8802C426.797 25.8802 421.431 26.6593 416.928 24.5558C416.928 24.5558 418.112 27.8201 420.659 29.4016C420.659 29.4016 416.858 29.5184 415.511 23.9481C415.511 23.9481 411.024 21.7823 410.642 21.0578C410.642 21.0578 411.187 26.7683 413.314 29.908C413.314 29.908 409.279 27.5708 409.591 20.1775L405.696 16.8041C405.696 16.8041 406.015 24.4 407.698 27.3449C407.698 27.3449 403.959 24.2831 404.769 15.8771L401.427 12.0363C401.427 12.0363 401.201 18.596 402.37 22.2732C402.37 22.2732 399.511 18.6895 400.508 10.8988L398.569 8.07084C398.569 8.07084 398.498 12.8621 398.569 14.2488C398.639 15.6355 398.304 15.768 398.304 15.768C397.28 12.9134 397.07 9.83047 397.696 6.86329C397.696 6.86329 394.074 0.778815 393.685 0.96579Z" fill="white"/>
<path opacity="0.1" d="M582.547 529.771C582.547 529.771 546.077 519.643 544.908 546.474C544.908 546.474 543.07 550.868 546.77 553.828C546.77 553.828 547.245 551.927 550.828 553.369C552.106 553.874 553.44 554.227 554.801 554.42C556.641 554.685 558.518 554.341 560.144 553.439C560.144 553.439 571.439 551.366 579.104 535.255C579.104 535.255 582.882 532.194 582.999 531.212L576.198 532.544C576.198 532.544 577.367 537.499 574.89 540.88C574.89 540.88 576.448 532.762 575.178 532.7C574.921 532.7 571.603 533.565 571.603 533.565C571.603 533.565 573.597 542.181 569.616 547.284C569.616 547.284 572.732 537.857 570.341 533.884L565.402 535.512C565.402 535.512 567.957 544.518 563.642 550.502C563.642 550.502 566.555 540.537 564.343 535.941L559.716 538.192C559.716 538.192 562.053 547.027 558.415 551.982C558.415 551.982 560.612 540.124 558.688 538.777C558.688 538.777 554.559 541.114 553.757 542.251C553.757 542.251 555.315 548.632 552.916 551.32C552.916 551.32 553.539 543.241 552.69 543.023C552.69 543.023 548.11 547.487 546.988 550.977C546.988 550.977 548.273 545.703 551.958 542.345C551.958 542.345 548.484 542.205 546.061 543.957C546.061 543.957 547.385 540.397 553.072 541.277C553.072 541.277 556.779 537.935 557.597 537.865C557.597 537.865 552.145 536.198 548.39 536.977C548.39 536.977 552.114 534.141 558.805 537.226L563.416 534.889C563.416 534.889 556.265 532.31 552.908 532.754C552.908 532.754 557.153 530.417 564.592 534.383L569.406 532.739C569.406 532.739 563.424 530.051 559.576 529.74C559.576 529.74 563.977 528.454 570.808 532.326L574.158 531.601C574.158 531.601 569.749 529.716 568.432 529.264C567.116 528.812 567.124 528.485 567.124 528.485C570.141 528.623 573.06 529.594 575.56 531.29C575.56 531.29 582.57 530.199 582.547 529.771Z" fill="white"/>
</g>
<defs>
<linearGradient id="paint0_linear_1_10857" x1="414.716" y1="466.877" x2="414.716" y2="180.953" gradientUnits="userSpaceOnUse">
<stop stop-color="#808080" stop-opacity="0.25"/>
<stop offset="0.54" stop-color="#808080" stop-opacity="0.12"/>
<stop offset="1" stop-color="#808080" stop-opacity="0.1"/>
</linearGradient>
<clipPath id="clip0_1_10857">
<rect width="825" height="615" fill="white"/>
</clipPath>
</defs>
</svg>
